<svg width="300" height="300" viewBox="0 0 300 300" fill="none" xmlns="http://www.w3.org/2000/svg">
<g clip-path="url(#clip0_10_2)">
<rect width="300" height="300" fill="black"/>
<rect width="300" height="300" fill="black"/>
<path d="M246.48 41.04C246.48 37.2 249.6 34.08 253.44 34.08C257.16 34.08 260.28 37.2 260.28 41.04C260.28 44.76 257.16 47.88 253.44 47.88C249.6 47.88 246.48 44.76 246.48 41.04ZM239.04 41.04C239.04 41.88 239.16 42.6 239.28 43.32C236.76 43.68 234.12 43.8 232.44 43.8H176.88C172.92 43.8 166.08 43.32 162.6 42.84V59.76C165.6 59.52 171.36 59.28 176.88 59.28H232.68C231.12 69.6 226.56 83.16 218.64 93.12C208.92 105.36 195.36 115.8 171.6 121.32L184.68 135.72C206.04 128.76 222.12 116.88 232.92 102.48C243 89.16 248.16 70.56 250.92 58.8C251.28 57.72 251.52 56.52 251.88 55.2C252.36 55.32 252.96 55.32 253.44 55.32C261.24 55.32 267.72 48.84 267.72 41.04C267.72 33.12 261.24 26.64 253.44 26.64C245.52 26.64 239.04 33.12 239.04 41.04Z" fill="white"/>
<path d="M213.84 158.76H196.2C196.68 161.64 197.04 167.16 197.04 169.8C197.04 173.4 196.92 176.88 196.8 180.24H179.64C175.08 180.24 168.84 179.88 163.8 179.4V195.12C168.96 194.64 175.56 194.64 179.64 194.64H195.48C192.84 212.88 186.84 226.32 175.68 237.36C170.88 242.28 164.88 246.36 159.96 249.12L173.88 260.4C195.36 245.16 206.76 226.32 211.2 194.64H238.2C238.2 207.6 236.64 231.6 233.16 239.16C231.84 242.04 230.16 243.36 226.32 243.36C221.64 243.36 215.4 242.76 209.52 241.68L211.44 257.76C217.2 258.24 224.4 258.72 231.24 258.72C239.52 258.72 244.08 255.6 246.72 249.48C251.88 237.24 253.32 203.76 253.8 190.8C253.8 189.48 254.28 186.36 254.64 184.44L244.2 179.4C241.32 179.88 238.2 180.24 235.2 180.24H212.64C212.88 176.76 213 173.16 213.12 169.44C213.24 166.56 213.48 161.52 213.84 158.76Z" fill="white"/>
<path d="M126.12 42.72C126.12 38.88 129.24 35.76 133.08 35.76C136.92 35.76 140.04 38.88 140.04 42.72C140.04 46.44 136.92 49.56 133.08 49.56C129.24 49.56 126.12 46.44 126.12 42.72ZM118.68 42.72C118.68 50.52 125.16 57 133.08 57C141 57 147.48 50.52 147.48 42.72C147.48 34.8 141 28.32 133.08 28.32C125.16 28.32 118.68 34.8 118.68 42.72ZM53.04 91.68C48.96 102.24 41.88 115.2 34.32 125.04L51.12 132.12C57.48 123.12 64.56 109.44 68.88 97.8C73.08 86.64 77.4 70.08 79.08 61.68C79.56 59.04 80.88 53.16 81.96 49.68L64.44 46.08C63 61.32 58.44 78.24 53.04 91.68ZM112.32 89.16C117.12 102.12 121.44 117.24 124.8 131.52L142.56 125.76C139.2 113.88 132.84 94.68 128.64 83.88C124.08 72.24 115.8 53.76 110.88 44.52L94.92 49.68C99.96 58.8 107.76 76.56 112.32 89.16Z" fill="white"/>
<path d="M126.36 161.88H108.24C108.72 165.24 108.96 169.08 108.96 173.88V196.68C108.96 215.4 107.4 224.4 99.12 233.4C91.92 241.2 82.2 245.76 70.32 248.52L82.8 261.72C91.56 258.96 104.04 253.08 111.96 244.44C120.84 234.6 125.88 223.44 125.88 197.64V173.88C125.88 169.08 126.12 165.24 126.36 161.88ZM70.68 162.84H53.4C53.76 165.6 53.88 169.8 53.88 172.08V212.52C53.88 216.12 53.4 220.8 53.28 223.08H70.68C70.44 220.32 70.32 215.64 70.32 212.64V172.08C70.32 168.24 70.44 165.6 70.68 162.84Z" fill="white"/>
</g>
<defs>
<clipPath id="clip0_10_2">
<rect width="300" height="300" fill="white"/>
</clipPath>
</defs>
</svg>
